<!-- Generated by IcoMoon.io -->
<svg version="1.1" xmlns="http://www.w3.org/2000/svg" width="32" height="32" viewBox="0 0 32 32">
<title>Checkbox-inactive</title>
<path fill="#000" d="M2 3.414v24.728l12.364-12.364-12.364-12.364zM2.971 30h25.615l-12.808-12.808-12.808 12.808zM30 28.586v-25.615l-12.808 12.808 12.808 12.808zM28.142 2h-24.728l12.364 12.364 12.364-12.364zM30.137 0.005l0.005-0.005 0.005 0.005c1.036 0.075 1.852 0.94 1.852 1.995v28c0 1.105-0.895 2-2 2h-28c-1.055 0-1.919-0.817-1.995-1.852l-0.005-0.005 0.005-0.005c-0.003-0.045-0.005-0.091-0.005-0.137v-28c0-0.179 0.024-0.353 0.068-0.518l-0.068-0.068 0.133-0.133c0.203-0.526 0.622-0.945 1.148-1.148l0.133-0.133 0.068 0.068c0.165-0.044 0.339-0.068 0.518-0.068h28c0.046 0 0.092 0.002 0.137 0.005z"></path>
</svg>
