<!-- Generated by IcoMoon.io -->
<svg version="1.1" xmlns="http://www.w3.org/2000/svg" width="32" height="32" viewBox="0 0 32 32">
<title>Checkbox-Fill</title>
<path fill="#000" d="M2 0h28c1.105 0 2 0.895 2 2v28c0 1.105-0.895 2-2 2h-28c-1.105 0-2-0.895-2-2v-28c0-1.105 0.895-2 2-2zM16.3 26.477c0.157 0 0.315-0.016 0.471-0.046 0.708-0.142 1.314-0.596 1.651-1.235l9.301-17.681c0.617-1.171 0.166-2.621-1.005-3.238s-2.622-0.165-3.238 1.007l-7.928 15.072-7.629-6.295c-1.021-0.844-2.533-0.698-3.375 0.323s-0.698 2.533 0.324 3.374l9.902 8.173c0.433 0.358 0.975 0.548 1.526 0.548z"></path>
</svg>
