<!-- Generated by IcoMoon.io -->
<svg version="1.1" xmlns="http://www.w3.org/2000/svg" width="40" height="32" viewBox="0 0 40 32">
<title>ENGlobal</title>
<path fill="#fff" d="M0 0h40v32h-40v-32z"></path>
<path fill="#68b2e3" d="M23.361 25.768c0.374-0.621 0.691-1.274 0.944-1.952 0.438 0.192 0.867 0.413 1.28 0.656-0.691 0.523-1.445 0.957-2.24 1.296h0.016zM19.297 20.52c-1.234 0.005-2.459 0.17-3.648 0.496-0.306-1.296-0.482-2.619-0.528-3.952h8.368c-0.054 1.331-0.23 2.654-0.528 3.952-1.2-0.328-2.437-0.493-3.68-0.496h0.016zM14.304 23.816c0.253 0.678 0.57 1.331 0.944 1.952-0.811-0.33-1.576-0.766-2.272-1.296 0.422-0.245 0.861-0.464 1.312-0.656h0.016zM12.976 17.064c0.056 1.582 0.282 3.154 0.672 4.688-0.797 0.346-1.559 0.77-2.272 1.264-1.464-1.664-2.365-3.747-2.576-5.952h4.176zM13.568 10.488c-0.346 1.459-0.544 2.949-0.592 4.448h-4.176c0.21-2.139 1.075-4.163 2.48-5.792 0.715 0.523 1.482 0.974 2.288 1.344zM14.208 8.392c-0.477-0.21-0.938-0.456-1.376-0.736 0.731-0.586 1.538-1.070 2.4-1.44-0.411 0.691-0.754 1.419-1.024 2.176zM22.449 9.112c-1.022 0.344-2.090 0.538-3.168 0.576-1.054-0.034-2.101-0.218-3.104-0.544 0.88-2.352 2.112-3.744 3.088-3.744s2.24 1.392 3.12 3.744l0.064-0.032zM24.433 8.36c-0.277-0.754-0.621-1.482-1.026-2.176 0.854 0.374 1.656 0.858 2.386 1.44-0.456 0.29-0.933 0.547-1.424 0.768l0.064-0.032zM23.535 14.904h-8.431c0.050-1.216 0.205-2.426 0.464-3.616 1.208 0.339 2.458 0.512 3.712 0.512 1.259 0.002 2.514-0.171 3.727-0.512 0.254 1.202 0.41 2.421 0.464 3.648l0.064-0.032zM25.681 14.904c-0.062-1.499-0.266-2.987-0.61-4.448 0.811-0.358 1.584-0.798 2.306-1.312 1.374 1.638 2.213 3.661 2.4 5.792l-4.096-0.032zM19.281 26.552c-0.944 0-2.128-1.28-3.008-3.504 0.979-0.272 1.991-0.418 3.008-0.432 1.016 0.014 2.029 0.158 3.008 0.432-0.864 2.256-2.048 3.536-3.008 3.536v-0.032zM24.945 21.752c0.389-1.534 0.616-3.106 0.672-4.688h4.16c-0.229 2.206-1.139 4.288-2.608 5.952-0.699-0.491-1.443-0.915-2.224-1.264zM32 15.992c-0.003-7.069-5.738-12.797-12.807-12.792-7.069 0.003-12.798 5.738-12.793 12.806 0.003 7.069 5.738 12.797 12.807 12.794 2.986-0.002 5.874-1.046 8.17-2.952l0.144-0.144c2.851-2.419 4.49-5.971 4.479-9.712z"></path>
</svg>
