<!-- Generated by IcoMoon.io -->
<svg version="1.1" xmlns="http://www.w3.org/2000/svg" width="40" height="32" viewBox="0 0 40 32">
<title>Slovenia</title>
<path fill="#1b5786" d="M0 32h40v-32h-40z"></path>
<path fill="#be1e2d" d="M0 32h40v-10.4h-40z"></path>
<path fill="#fff" d="M0 10.4h40v-10.4h-40z"></path>
<path fill="#2d2926" opacity="0.15" d="M38 30h-36v-28h36v28zM40 0h-40v32h40v-32z"></path>
<path fill="#1b5786" d="M15.894 11.28c0 2.18-2.666 4.586-3.948 4.586-1.066 0-3.946-2.406-3.946-4.586v-4.694c0-0.764 1.768-1.386 3.946-1.386 2.18 0 3.948 0.622 3.948 1.386v4.694z"></path>
<path fill="#fff" d="M14.965 11.292c0 1.668-2.040 3.508-3.018 3.508-0.816 0-3.018-1.84-3.018-3.508l1.224-1.754c0-0.29 0.61 0.776 0.61 0.776l1.184-2.448 1.264 2.448 0.612-0.612 1.142 1.59z"></path>
<path fill="none" stroke="#be1e2d" stroke-linejoin="miter" stroke-linecap="butt" stroke-miterlimit="4" stroke-width="0.8" d="M8.106 10.235v1.044c0 2.18 2.88 4.586 3.948 4.586 1.278 0 3.946-2.406 3.946-4.586v-1.086"></path>
<path fill="#fcd21d" d="M11.971 7.36l-0.466 0.268 0.090-0.53-0.378-0.358 0.52-0.098 0.234-0.49 0.232 0.47 0.522 0.054-0.378 0.39 0.090 0.52-0.466-0.226zM13.57 7.36l-0.466 0.268 0.090-0.53-0.378-0.358 0.52-0.098 0.234-0.49 0.234 0.47 0.52 0.054-0.378 0.39 0.090 0.52-0.466-0.226zM10.37 7.36l-0.466 0.268 0.090-0.53-0.378-0.358 0.522-0.098 0.232-0.49 0.234 0.47 0.52 0.054-0.376 0.39 0.088 0.52-0.466-0.226z"></path>
</svg>
