<!-- Generated by IcoMoon.io -->
<svg version="1.1" xmlns="http://www.w3.org/2000/svg" width="32" height="32" viewBox="0 0 32 32">
<title>Arrivals-Ferry</title>
<path fill="#000" d="M17.617 13.134c4.166 0.497 10.821 4.74 10.821 8.020l-2.688 8.651c-1.24 0.398-1.62 1.742-3.237 1.742-1.785 0-3.721-1.639-5.497-1.832l0.601-16.581zM5.010 21.154c0-3.28 6.655-7.522 10.821-8.020l0.601 16.582c-1.777 0.192-3.713 1.832-5.498 1.832-1.617 0-1.996-1.345-3.236-1.742l-2.688-8.651zM8.879 10.492h15.997c-0.015-0.032-0.029-0.062-0.044-0.095-0.779-1.651-1.348-1.616-5.537-1.616h-4.835c-4.189 0-4.758-0.034-5.537 1.616-0.015 0.032-0.029 0.063-0.044 0.095zM19.275 6.089h10.532l-0.936 3.013h-2.278l1.641 9.74c-1.227-1.672-3.33-3.991-5.531-5.256 2.647-0.113 3.161-0.516 2.673-1.92h-16.997c-0.471 1.355-0.008 1.778 2.406 1.908-2.496 1.42-4.578 4.088-5.496 6.039l1.924-10.511h-2.278l-0.936-3.013h10.531l1.596-6.089h1.551l1.596 6.089z"></path>
</svg>
