<!-- Generated by IcoMoon.io -->
<svg version="1.1" xmlns="http://www.w3.org/2000/svg" width="32" height="32" viewBox="0 0 32 32">
<title>One-Way</title>
<path fill="#000" d="M0 19.030l32-0.030-2.726 5.205h-0.409c-4.198 0-5.646 1.795-9.898 1.795s-7.837-2.633-11.783-2.633c-3.947 0-5.794 0.897-5.794 0.897-0.913-1.564-1.395-3.38-1.39-5.234zM28.552 17.218l0.448 0.782h-24l2.207-4.787h2.97l3.371-6.213h2.756l1.57 6.213h8.381l0.82 1.43h-3.615c0 0-0.292 0.012-0.292 0.243s0.019 0.432 0.056 0.68c0.036 0.248 0.153 0.508 0.609 0.62 0.388 0.095 3.73 0.818 4.718 1.031zM21 16.487v-0.975c0-0.283-0.292-0.513-0.652-0.513h-0.696c-0.36 0-0.652 0.229-0.652 0.513v0.975c0 0.209 0.161 0.389 0.389 0.468 0.080 0.028 0.169 0.044 0.263 0.044h0.696c0.094 0 0.182-0.016 0.263-0.044l0.003-0.001c0.227-0.080 0.386-0.258 0.386-0.467zM17 16.487v-0.975c0-0.283-0.292-0.513-0.653-0.513h-0.696c-0.36 0-0.652 0.229-0.652 0.513v0.975c0 0.209 0.16 0.389 0.389 0.468 0.080 0.028 0.169 0.044 0.263 0.044h0.696c0.094 0 0.182-0.016 0.263-0.044l0.003-0.001c0.227-0.080 0.386-0.258 0.386-0.467zM13 16.487v-0.975c0-0.19-0.135-0.349-0.327-0.437-0.094-0.043-0.197-0.075-0.313-0.075h-0.719c-0.354 0-0.64 0.229-0.64 0.513v0.975c0 0.209 0.158 0.389 0.382 0.468 0.079 0.028 0.166 0.044 0.258 0.044h0.719c0.092 0 0.179-0.016 0.258-0.044l0.003-0.001c0.223-0.080 0.379-0.258 0.379-0.467z"></path>
</svg>
