<!-- Generated by IcoMoon.io -->
<svg version="1.1" xmlns="http://www.w3.org/2000/svg" width="32" height="32" viewBox="0 0 32 32">
<title>Passenger</title>
<path fill="#000" d="M15.875 32l-0.92-0.001c-0.254 0-0.509-0.128-0.509-0.383l-1.53-10.964h-0.128l-1.148-0.51c-0.411-0.165-0.669-0.577-0.638-1.019l0.255-8.032c0.134-1.802 1.637-3.192 3.442-3.188h3.314c1.806-0.004 3.308 1.386 3.442 3.188l0.51 8.032c-0.003 0.433-0.249 0.827-0.638 1.019l-1.147 0.51h-0.128l-1.53 10.964c-0.128 0.256-0.254 0.383-0.51 0.383h-0.524l-0.349 0.001c-0.077 0-0.163-0.015-0.201-0.045s-0.080-0.084-0.123-0.162l-0.323-0.567-0.323 0.567c-0.043 0.078-0.084 0.132-0.123 0.162-0.038 0.030-0.097 0.045-0.174 0.045zM16.23 0c1.831 0 3.314 1.484 3.314 3.314s-1.484 3.314-3.314 3.314c-1.831 0-3.314-1.484-3.314-3.314s1.484-3.314 3.314-3.314z"></path>
</svg>
