<!-- Generated by IcoMoon.io -->
<svg version="1.1" xmlns="http://www.w3.org/2000/svg" width="32" height="32" viewBox="0 0 32 32">
<title>Return-journey</title>
<path fill="#8c8c8c" d="M9.168 20.538l22.832-0.020-1.945 3.531h-0.292c-2.995 0-4.028 1.218-7.063 1.218s-5.592-1.786-8.408-1.786c-2.816 0-4.134 0.609-4.134 0.609-0.651-1.061-0.995-2.293-0.992-3.551zM29.58 19.315l0.315 0.547h-16.841l1.548-3.349h2.084l2.365-4.348h1.934l1.102 4.348h5.881l0.576 1.001h-2.537c0 0-0.205 0.008-0.205 0.17s0.014 0.303 0.039 0.476c0.025 0.174 0.107 0.356 0.427 0.434 0.272 0.067 2.617 0.572 3.311 0.721zM24.404 18.714v-0.786c0-0.228-0.173-0.413-0.386-0.413h-0.412c-0.213 0-0.386 0.185-0.386 0.413v0.786c0 0.169 0.095 0.314 0.23 0.378 0.047 0.023 0.1 0.036 0.155 0.036h0.412c0.055 0 0.108-0.013 0.155-0.036l0.002-0.001c0.134-0.064 0.229-0.208 0.229-0.377zM21.182 18.714v-0.786c0-0.228-0.173-0.413-0.386-0.413h-0.411c-0.213 0-0.385 0.185-0.385 0.413v0.786c0 0.169 0.095 0.314 0.23 0.378 0.047 0.023 0.1 0.036 0.155 0.036h0.411c0.056 0 0.108-0.013 0.156-0.036l0.002-0.001c0.134-0.064 0.228-0.208 0.228-0.377zM17.96 18.714v-0.786c0-0.153-0.081-0.282-0.197-0.353-0.057-0.035-0.119-0.061-0.189-0.061h-0.433c-0.213 0-0.386 0.185-0.386 0.413v0.786c0 0.169 0.095 0.314 0.23 0.378 0.048 0.023 0.1 0.036 0.156 0.036h0.433c0.055 0 0.108-0.013 0.155-0.036l0.002-0.001c0.134-0.064 0.228-0.208 0.228-0.377z"></path>
<path fill="#000" d="M6.085 12.733v0.586c0 0.125 0.073 0.233 0.178 0.281l0.002 0.001c0.037 0.017 0.078 0.027 0.121 0.027h0.321c0.044 0 0.084-0.010 0.121-0.027 0.105-0.048 0.179-0.156 0.179-0.281v-0.586c0-0.17-0.134-0.308-0.3-0.308h-0.321c-0.166 0-0.301 0.138-0.301 0.308zM8.596 12.733v0.586c0 0.125 0.073 0.233 0.178 0.281l0.002 0.001c0.037 0.017 0.078 0.027 0.121 0.027h0.321c0.043 0 0.084-0.010 0.121-0.027 0.105-0.048 0.179-0.156 0.179-0.281v-0.586c0-0.17-0.134-0.308-0.3-0.308h-0.321c-0.166 0-0.301 0.138-0.301 0.308zM11.106 12.733v0.586c0 0.125 0.073 0.233 0.178 0.281l0.002 0.001c0.037 0.017 0.078 0.027 0.121 0.027h0.338c0.043 0 0.084-0.010 0.121-0.027 0.105-0.048 0.179-0.156 0.179-0.281v-0.586c0-0.17-0.135-0.308-0.301-0.308h-0.338c-0.055 0-0.103 0.019-0.147 0.045-0.090 0.053-0.153 0.149-0.153 0.263zM1.806 14.175l0.245-0.408c0.54-0.111 2.368-0.488 2.58-0.537 0.25-0.058 0.313-0.194 0.333-0.323s0.030-0.234 0.030-0.355c0-0.121-0.16-0.127-0.16-0.127h-1.977l0.449-0.746h4.583l0.859-3.239h1.507l1.843 3.239h1.922l1.207 2.495h-13.421zM14.083 15.739l-0.655 1.351c-2.042 0.144-3.938 1.307-6.162 1.307-2.371 0-3.178-0.901-5.518-0.901h-0.228l-1.52-2.612 16.465 0.015c0.001 0.283-0.026 0.564-0.075 0.84h-2.307z"></path>
</svg>
