<!-- Generated by IcoMoon.io -->
<svg version="1.1" xmlns="http://www.w3.org/2000/svg" width="32" height="32" viewBox="0 0 32 32">
<title>Walk-on</title>
<path fill="#000" d="M26.919 11.028l0.514 8.058c-0.004 0.433-0.251 0.827-0.639 1.019l-1.154 0.514h-0.125l-1.548 10.996c-0.125 0.254-0.255 0.384-0.51 0.384h-0.853c-0.071 0.005-0.141-0.012-0.204-0.046-0.050-0.044-0.090-0.098-0.12-0.158l-0.324-0.57-0.324 0.57c-0.030 0.060-0.071 0.113-0.12 0.158-0.051 0.035-0.114 0.051-0.176 0.046h-0.927c-0.259 0-0.514-0.13-0.514-0.384l-1.534-10.996-0.296-1.816-0.616 0.82c-0.584 0.829-1.163 1.209-1.947 0.927l-0.19-0.070c-0.003-0.001-0.006-0.002-0.008-0.003-0.79-0.283-1.201-1.153-0.919-1.943l2.585-6.167 1.469-3.54c0.241-0.533 0.412-0.996 1.631-0.996h3.387c1.815-0.010 3.327 1.387 3.461 3.197zM23.041 0c1.838-0.002 3.329 1.485 3.332 3.322s-1.485 3.329-3.322 3.332c-1.838 0.003-3.329-1.485-3.332-3.322v-0.005c0-1.836 1.487-3.325 3.322-3.327zM9.451 28.946c0.83 0.006 1.499 0.681 1.497 1.511v0.013c-0.008 0.834-0.69 1.504-1.524 1.497s-1.505-0.69-1.497-1.524c0.008-0.834 0.69-1.505 1.524-1.497zM15.085 21.106l0.079 0.032-2.511 4.569-1.742 3.197c-0.311-0.293-0.703-0.487-1.126-0.556-1.167-0.189-2.267 0.603-2.456 1.77l-2.479-1.348c-0.789-0.436-1.081-1.425-0.653-2.219l2.928-5.384c0.436-0.791 1.428-1.085 2.224-0.658l3.29 1.793c0.188 0.099 0.354 0.237 0.487 0.403l1.158-2.112c0.227 0.226 0.501 0.402 0.802 0.514z"></path>
</svg>
